#!OML:ASF I:\Random Stuff\random\construction\7_22_03\Session 2\subj1.ASF
:FULLY-SPECIFIED
:DEGREES
1033
root -10.5427 17.6649 -5.78176 -363.885 70.9972 -383.693
lowerback 15.4713 -1.11789 -3.67816
upperback 8.2052 -1.59494 -1.74022
thorax 0.090116 -0.71824 0.489489
lowerneck -16.7476 2.52755 -1.17606
upperneck 39.1418 7.5591 -4.30163
head 17.3536 2.55619 -0.198209
rclavicle -2.22639e-014 -3.49861e-014
rhumerus -17.3075 32.8191 -93.9561
rradius 102.688
rwrist -20.075
rhand -37.202 6.89865
rfingers 7.12502
rthumb -10.2695 -22.8306
lclavicle -2.22639e-014 -3.49861e-014
lhumerus 20.9585 -25.3332 66.2183
lradius 34.791
lwrist -9.04327
lhand -38.7604 81.7402
lfingers 7.12502
lthumb -11.7726 -471.389
rfemur -25.9159 8.27385 20.0876
rtibia 7.38076
rfoot -1.90105 -1.35395
rtoes -24.715
lfemur -31.9501 1.98042 -5.92939
ltibia 31.5678
lfoot -18.1351 11.5639
ltoes -22.3952
1034
root -10.5371 17.6665 -5.78243 -363.996 71.0324 -383.738
lowerback 15.3891 -1.18468 -3.68177
upperback 8.23048 -1.67695 -1.68288
thorax 0.164947 -0.761981 0.5614
lowerneck -16.8473 2.60344 -1.27061
upperneck 39.1069 7.63569 -4.1569
head 17.3466 2.58909 -0.0998404
rclavicle -5.40694e-014 -2.8625e-014
rhumerus -17.9887 33.2394 -94.081
rradius 102.711
rwrist -19.8955
rhand -37.6039 7.3474
rfingers 7.12502
rthumb -10.6572 -22.3623
lclavicle -5.40694e-014 -2.8625e-014
lhumerus 20.6436 -24.8284 66.7833
lradius 34.7666
lwrist -9.79741
lhand -38.8043 81.5164
lfingers 7.12502
lthumb -11.8149 -471.163
rfemur -25.7588 8.21816 20.1181
rtibia 7.25867
rfoot -1.89957 -1.35952
rtoes -24.3374
lfemur -31.8533 1.89605 -5.92053
ltibia 31.4858
lfoot -18.09 11.6207
ltoes -22.6099
1035
root -10.5323 17.6693 -5.78338 -364.041 71.0175 -383.701
lowerback 15.2935 -1.21296 -3.69138
upperback 8.26421 -1.70848 -1.64352
thorax 0.253882 -0.780573 0.609916
lowerneck -16.9667 2.6404 -1.35915
upperneck 39.0651 7.64535 -4.00201
head 17.3382 2.59747 -0.0104272
rclavicle 3.97569e-014 -4.13472e-014
rhumerus -18.6451 33.7333 -94.2694
rradius 102.633
rwrist -19.7294
rhand -38.2174 8.06397
rfingers 7.12502
rthumb -11.249 -21.6144
lclavicle 3.97569e-014 -4.13472e-014
lhumerus 20.4001 -24.3635 67.3778
lradius 34.6267
lwrist -10.8428
lhand -38.8353 81.2211
lfingers 7.12502
lthumb -11.8449 -470.866
rfemur -25.5815 8.21312 20.1252
rtibia 7.10066
rfoot -1.89139 -1.35604
rtoes -23.9941
lfemur -31.7132 1.7968 -5.91678
ltibia 31.3881
lfoot -18.0834 11.7478
ltoes -22.3867
1036
root -10.5293 17.6727 -5.7853 -364.003 71.0302 -383.542
lowerback 15.2626 -1.21995 -3.73484
upperback 8.29362 -1.71894 -1.62416
thorax 0.304255 -0.78815 0.654869
lowerneck -17.0079 2.66596 -1.38638
upperneck 38.9927 7.6171 -3.86543
head 17.2953 2.6008 0.0507687
rclavicle 1.90833e-014 4.45278e-014
rhumerus -19.2414 34.1833 -94.5523
rradius 102.352
rwrist -19.6751
rhand -38.7272 9.27832
rfingers 7.12502
rthumb -11.7406 -20.3726
lclavicle 1.90833e-014 4.45278e-014
lhumerus 20.2027 -24.1715 67.7926
lradius 34.5153
lwrist -11.74
lhand -38.9529 80.8212
lfingers 7.12502
lthumb -11.9582 -470.46
rfemur -25.3617 8.18324 20.0949
rtibia 6.90987
rfoot -1.87365 -1.32824
rtoes -23.9616
lfemur -31.5253 1.56596 -5.93723
ltibia 31.2824
lfoot -18.1174 11.9241
ltoes -22.0857
1037
root -10.5289 17.6745 -5.78789 -363.997 71.086 -383.396
lowerback 15.3421 -1.2109 -3.76598
upperback 8.292 -1.71357 -1.60409
thorax 0.262463 -0.785715 0.69426
lowerneck -17.0247 2.69728 -1.33471
upperneck 38.9663 7.6109 -3.79907
head 17.2814 2.61545 0.070612
rclavicle 1.59028e-014 2.8625e-014
rhumerus -19.6627 34.2535 -94.851
rradius 102.007
rwrist -19.3278
rhand -39.1891 9.81869
rfingers 7.12502
rthumb -12.186 -19.8064
lclavicle 1.59028e-014 2.8625e-014
lhumerus 20.0613 -24.3212 67.971
lradius 34.4598
lwrist -12.2995
lhand -39.149 80.4444
lfingers 7.12502
lthumb -12.1473 -470.072
rfemur -25.1311 8.11127 20.0715
rtibia 6.7425
rfoot -1.8918 -1.32523
rtoes -23.6715
lfemur -31.3309 1.25217 -5.94621
ltibia 31.1688
lfoot -18.1673 12.0985
ltoes -22.0896
